<svg width="272" height="85" viewBox="0 0 272 85" fill="none" xmlns="http://www.w3.org/2000/svg">
<g clip-path="url(#clip0_2_11)">
<path d="M53.0454 51.6839C62.8486 48.9923 70.1222 42.937 76.1523 35.3575C77.3685 36.0594 77.2571 36.955 77.3703 37.7258C79.6031 52.9215 70.5751 69.797 56.2392 76.6813C43.7769 82.6658 31.3293 82.5441 19.1895 75.6054C15.268 73.364 14.9411 71.8507 16.9474 67.7537C20.7671 59.9535 26.8437 55.0863 35.4411 53.3997C36.5348 53.1851 37.6149 53.2057 38.7027 53.2347C43.499 53.3626 48.2522 53.1117 53.0454 51.6839Z" fill="#2DA5A6"/>
<path d="M26.7921 30.943C15.839 33.4488 8.04761 40.2024 1.41078 49.3113C0.141301 46.1845 -0.0954478 43.643 0.0295821 41.0975C0.977852 21.791 14.1635 6.70646 33.2591 3.5463C42.5913 2.0019 51.4961 3.6955 59.469 9.09319C62.1024 10.876 62.5416 12.4956 61.1839 15.3575C56.9849 24.2083 49.8731 28.739 40.1764 29.8152C35.7731 30.3039 31.2713 29.4901 26.7921 30.943Z" fill="#3187D4"/>
<path d="M8.50983 49.4969C15.2741 40.8777 24.0325 36.4318 34.8517 35.9849C39.1488 35.8074 43.433 35.6136 47.6144 34.3894C55.6232 32.0446 61.2789 26.9349 65.2644 19.7929C65.5963 19.1981 65.9248 18.5988 66.2085 17.9805C66.8487 16.5848 67.6427 16.4499 68.632 17.6423C70.3809 19.7499 71.9031 22.0003 73.0355 24.5032C73.571 25.6867 73.5799 26.8471 73.1495 28.0715C72.0401 31.2278 70.1363 33.9059 67.8303 36.2341C60.9156 43.2152 52.5269 47.2405 42.6306 47.2594C35.196 47.2736 28.2542 48.4479 22.0379 52.7196C17.5167 55.8264 14.5072 60.1573 12.0177 64.9128C10.2966 68.2003 9.76491 68.2457 7.56648 65.2217C7.20607 64.726 6.88995 64.1979 6.52307 63.7072C4.03958 60.3857 3.87058 56.9783 6.09273 53.4576C6.89207 52.1911 7.64842 50.8978 8.50983 49.4969Z" fill="#2EA1B3"/>
</g>
<path d="M106.425 68V17.0909H117.188V59.1257H139.013V68H106.425ZM156.83 68.7209C154.394 68.7209 152.223 68.2983 150.318 67.4531C148.412 66.5914 146.904 65.3236 145.794 63.6499C144.7 61.9595 144.153 59.8549 144.153 57.3359C144.153 55.2147 144.542 53.4332 145.321 51.9915C146.1 50.5497 147.161 49.3897 148.503 48.5114C149.845 47.633 151.37 46.9702 153.077 46.5227C154.8 46.0753 156.607 45.7604 158.496 45.5781C160.717 45.3461 162.506 45.1307 163.865 44.9318C165.224 44.7164 166.21 44.4015 166.823 43.9872C167.436 43.5729 167.743 42.9598 167.743 42.1477V41.9986C167.743 40.4242 167.246 39.2062 166.252 38.3445C165.274 37.4827 163.882 37.0518 162.075 37.0518C160.17 37.0518 158.653 37.4744 157.526 38.3196C156.4 39.1482 155.654 40.1922 155.289 41.4517L145.495 40.6562C145.992 38.3362 146.97 36.331 148.428 34.6406C149.887 32.9337 151.768 31.6245 154.071 30.7131C156.391 29.785 159.076 29.321 162.125 29.321C164.246 29.321 166.276 29.5696 168.215 30.0668C170.171 30.5639 171.903 31.3345 173.411 32.3785C174.935 33.4226 176.137 34.7649 177.015 36.4055C177.893 38.0296 178.333 39.9768 178.333 42.2472V68H168.29V62.7053H167.992C167.378 63.8984 166.558 64.9508 165.531 65.8622C164.503 66.7571 163.269 67.4614 161.827 67.9751C160.385 68.4723 158.72 68.7209 156.83 68.7209ZM159.863 61.4126C161.421 61.4126 162.796 61.1061 163.99 60.4929C165.183 59.8632 166.119 59.018 166.798 57.9574C167.478 56.8968 167.818 55.6953 167.818 54.353V50.3011C167.486 50.5166 167.03 50.7154 166.45 50.8977C165.887 51.0634 165.249 51.2209 164.536 51.37C163.824 51.5026 163.111 51.6269 162.399 51.7429C161.686 51.8423 161.04 51.9335 160.46 52.0163C159.217 52.1986 158.131 52.4886 157.203 52.8864C156.275 53.2841 155.554 53.8227 155.041 54.5021C154.527 55.165 154.27 55.9936 154.27 56.9879C154.27 58.4297 154.792 59.5317 155.836 60.294C156.897 61.0398 158.239 61.4126 159.863 61.4126ZM206.857 29.8182V37.7727H183.863V29.8182H206.857ZM189.084 20.6705H199.673V56.267C199.673 57.2448 199.822 58.0071 200.121 58.554C200.419 59.0843 200.833 59.4571 201.363 59.6726C201.91 59.888 202.54 59.9957 203.253 59.9957C203.75 59.9957 204.247 59.9543 204.744 59.8714C205.241 59.772 205.622 59.6974 205.888 59.6477L207.553 67.5277C207.023 67.6934 206.277 67.884 205.316 68.0994C204.355 68.3314 203.186 68.4723 201.811 68.522C199.259 68.6214 197.022 68.2817 195.099 67.5028C193.193 66.724 191.71 65.5142 190.65 63.8736C189.589 62.233 189.067 60.1615 189.084 57.6591V20.6705ZM213.755 68V29.8182H224.345V68H213.755ZM219.075 24.8963C217.5 24.8963 216.15 24.3743 215.023 23.3303C213.913 22.2696 213.357 21.0019 213.357 19.527C213.357 18.0687 213.913 16.8175 215.023 15.7734C216.15 14.7128 217.5 14.1825 219.075 14.1825C220.649 14.1825 221.991 14.7128 223.102 15.7734C224.229 16.8175 224.792 18.0687 224.792 19.527C224.792 21.0019 224.229 22.2696 223.102 23.3303C221.991 24.3743 220.649 24.8963 219.075 24.8963ZM250.079 68.7457C246.218 68.7457 242.878 67.9254 240.061 66.2848C237.26 64.6276 235.098 62.3241 233.573 59.3743C232.049 56.4079 231.286 52.9692 231.286 49.0582C231.286 45.1141 232.049 41.6671 233.573 38.7173C235.098 35.7509 237.26 33.4474 240.061 31.8068C242.878 30.1496 246.218 29.321 250.079 29.321C253.94 29.321 257.271 30.1496 260.072 31.8068C262.889 33.4474 265.06 35.7509 266.585 38.7173C268.109 41.6671 268.871 45.1141 268.871 49.0582C268.871 52.9692 268.109 56.4079 266.585 59.3743C265.06 62.3241 262.889 64.6276 260.072 66.2848C257.271 67.9254 253.94 68.7457 250.079 68.7457ZM250.129 60.5426C251.885 60.5426 253.352 60.0455 254.528 59.0511C255.705 58.0402 256.592 56.6648 257.188 54.9247C257.801 53.1847 258.108 51.2043 258.108 48.9837C258.108 46.763 257.801 44.7827 257.188 43.0426C256.592 41.3026 255.705 39.9271 254.528 38.9162C253.352 37.9053 251.885 37.3999 250.129 37.3999C248.355 37.3999 246.864 37.9053 245.654 38.9162C244.461 39.9271 243.558 41.3026 242.945 43.0426C242.348 44.7827 242.05 46.763 242.05 48.9837C242.05 51.2043 242.348 53.1847 242.945 54.9247C243.558 56.6648 244.461 58.0402 245.654 59.0511C246.864 60.0455 248.355 60.5426 250.129 60.5426Z" fill="#0C2D50"/>
<defs>
<clipPath id="clip0_2_11">
<rect width="78" height="78" fill="white" transform="translate(0 3)"/>
</clipPath>
</defs>
</svg>
